<svg xmlns="http://www.w3.org/2000/svg" version="1.1" xmlns:xlink="http://www.w3.org/1999/xlink" xmlns:svgjs="http://svgjs.dev/svgjs" width="1000" height="1000"><g clip-path="url(#SvgjsClipPath1013)"><rect width="1000" height="1000" fill="#ffffff"></rect><g transform="matrix(3.292568203198495,0,0,3.292568203198495,163.82878645343365,150)"><svg xmlns="http://www.w3.org/2000/svg" version="1.1" xmlns:xlink="http://www.w3.org/1999/xlink" xmlns:svgjs="http://svgjs.dev/svgjs" width="204.2" height="212.6"><svg version="1.1" id="Layer_1" xmlns="http://www.w3.org/2000/svg" xmlns:xlink="http://www.w3.org/1999/xlink" x="0px" y="0px" viewBox="0 0 204.2 212.6" style="enable-background:new 0 0 204.2 212.6;" xml:space="preserve">
<style type="text/css">
	.st0{fill:#333333;}
	.st1{fill:#389826;}
	.st2{fill:#9558B2;}
	.st3{fill:#FFFFFF;}
	.st4{fill:#CB3C33;}
</style>
<title>1</title>
<g id="Слой_2">
	<g id="Layer_1_1_">
		<path class="st0" d="M66.1,114h63c6.7-0.3,12-5.8,12-12.5c0-14.1,0.3-27.6,0.3-41.5c0-6.3,5.1-11.4,11.3-11.4h40.1
			c6.3,0,11.4,5.1,11.4,11.4v40.1c0,6.3-5.1,11.4-11.4,11.4h-35.1c-6.2,0.9-10.8,6.2-10.8,12.4v70.9c0,9.8-8,17.8-17.9,17.8H66.1
			c-9.8,0-17.8-8-17.8-17.8v-65.3c0-6.8-5.5-12.2-12.3-12.2H8.7c-4.8,0-8.7-3.9-8.7-8.7V77.7C0,72.9,3.9,69,8.7,69h28.7
			c6,0,10.8-4.8,10.8-10.8V12.5C48.3,5.6,53.9,0,60.8,0h44c6.9,0,12.5,5.6,12.5,12.5v44c0,6.9-5.6,12.5-12.5,12.5H59.1
			c-6,0-10.8,4.8-10.8,10.8v22c0,6.7,5.5,12.2,12.2,12.2H66.1z"></path>
		<rect x="61.6" y="13.3" class="st1" width="42.3" height="42.3"></rect>
		<rect x="154.7" y="61.9" class="st2" width="36.2" height="36.2"></rect>
		<rect x="13.3" y="82.3" class="st3" width="21.7" height="21.7"></rect>
		<rect x="61.5" y="127.3" class="st4" width="72" height="72"></rect>
	</g>
</g>
</svg></svg></g></g><defs><clipPath id="SvgjsClipPath1013"><rect width="1000" height="1000" x="0" y="0" rx="350" ry="350"></rect></clipPath></defs></svg>